<svg width="30" height="30" viewBox="0 0 30 30" fill="none" xmlns="http://www.w3.org/2000/svg">
<g id="elements">
<path id="Vector" d="M15 22.9998C13.2232 23.8297 10.8894 24.3332 8.33329 24.3332C6.91206 24.3332 5.55954 24.1775 4.33329 23.8966C3.54502 23.7161 3.15088 23.6258 2.67861 23.2521C2.40925 23.039 2.07306 22.6171 1.92545 22.307C1.66663 21.7632 1.66663 21.2358 1.66663 20.1812V5.81846C1.66663 4.50536 3.05333 3.60347 4.33329 3.89664C5.55954 4.17751 6.91206 4.33317 8.33329 4.33317C10.8894 4.33317 13.2232 3.82966 15 2.99984C16.7767 2.17002 19.1105 1.6665 21.6666 1.6665C23.0879 1.6665 24.4404 1.82217 25.6666 2.10303C26.4549 2.28358 26.849 2.37386 27.3213 2.74755C27.5907 2.96069 27.9269 3.38257 28.0745 3.69272C28.3333 4.23651 28.3333 4.76383 28.3333 5.81847V20.1812C28.3333 21.4943 26.9466 22.3962 25.6666 22.103C24.4404 21.8222 23.0879 21.6665 21.6666 21.6665C19.1105 21.6665 16.7767 22.17 15 22.9998Z" stroke="#680DB3" stroke-width="1.5"/>
<path id="Vector_2" d="M1.66663 26.9997C3.44335 27.8295 5.7772 28.333 8.33329 28.333C10.8894 28.333 13.2232 27.8295 15 26.9997C16.7767 26.1699 19.1105 25.6663 21.6666 25.6663C24.2227 25.6663 26.5566 26.1699 28.3333 26.9997" stroke="#680DB3" stroke-width="1.5" stroke-linecap="round"/>
<path id="Ellipse 1575" d="M18.3333 12.9998C18.3333 14.8408 16.8409 16.3332 15 16.3332C13.159 16.3332 11.6666 14.8408 11.6666 12.9998C11.6666 11.1589 13.159 9.6665 15 9.6665C16.8409 9.6665 18.3333 11.1589 18.3333 12.9998Z" stroke="#680DB3" stroke-width="1.5"/>
<path id="Vector_3" d="M6.33325 14.333L6.33325 14.345" stroke="#680DB3" stroke-width="2" stroke-linecap="round" stroke-linejoin="round"/>
<path id="Vector_4" d="M23.6666 11.6562L23.6666 11.6682" stroke="#680DB3" stroke-width="2" stroke-linecap="round" stroke-linejoin="round"/>
</g>
</svg>
