<svg width="40" height="44" viewBox="0 0 40 44" fill="none" xmlns="http://www.w3.org/2000/svg">
<g id="Icon">
<rect id="Rectangle" y="0.918945" width="40" height="42.1622" rx="8" fill="#FFE7E7"/>
<path id="Icon_2" fill-rule="evenodd" clip-rule="evenodd" d="M20.9933 29.5015C20.9355 30.0257 20.5128 30.4326 20 30.4326C19.4477 30.4326 19 29.9607 19 29.3786V17.167L13.7071 22.7453L13.6129 22.833C13.2206 23.1545 12.6534 23.1253 12.2929 22.7453C11.9024 22.3337 11.9024 21.6663 12.2929 21.2547L19.2929 13.8763L19.2944 13.8749C19.3229 13.845 19.353 13.8169 19.3847 13.7909L19.3871 13.7886C19.7794 13.4671 20.3466 13.4963 20.7071 13.8763L27.7071 21.2547L27.7903 21.354C28.0953 21.7675 28.0676 22.3654 27.7071 22.7453L27.6129 22.833C27.2206 23.1545 26.6534 23.1253 26.2929 22.7453L21 17.167V29.3786L20.9933 29.5015Z" fill="#FF0F0F"/>
</g>
</svg>
