<svg width="24" height="24" viewBox="0 0 24 24" fill="none" xmlns="http://www.w3.org/2000/svg">
<g id="Phone">
<path id="&#240;&#159;&#145;&#145; Edit Color" fill-rule="evenodd" clip-rule="evenodd" d="M20.4663 18.993L18.7311 20.7283C18.7311 20.7283 14.2221 22.6607 7.78071 16.2193C1.33933 9.77793 3.27175 5.26896 3.27175 5.26896L5.00704 3.53366C5.79102 2.74968 7.0876 2.84183 7.75283 3.7288L9.40919 5.93728C9.95319 6.66261 9.88106 7.67758 9.23995 8.31869L7.78071 9.77793C7.78071 9.77793 7.78071 11.0662 10.3573 13.6427C12.9338 16.2193 14.2221 16.2193 14.2221 16.2193L15.6813 14.7601C16.3224 14.119 17.3374 14.0468 18.0627 14.5908L20.2712 16.2472C21.1582 16.9124 21.2503 18.209 20.4663 18.993Z" fill="#1E429F"/>
</g>
</svg>
