<svg width="24" height="24" viewBox="0 0 24 24" fill="none" xmlns="http://www.w3.org/2000/svg">
<g id="Question Circle">
<path id="&#240;&#159;&#145;&#145; Edit Color" fill-rule="evenodd" clip-rule="evenodd" d="M12 22C17.5228 22 22 17.5228 22 12C22 6.47715 17.5228 2 12 2C6.47715 2 2 6.47715 2 12C2 17.5228 6.47715 22 12 22Z" fill="#928FFF"/>
<path id="&#240;&#159;&#145;&#145; Edit Color_2" fill-rule="evenodd" clip-rule="evenodd" d="M11.1332 9.50073C10.8566 9.97879 10.2449 10.1421 9.76683 9.86561C9.28877 9.58906 9.12541 8.97733 9.40195 8.49927C9.91915 7.60518 10.8883 7 12 7C13.6569 7 15 8.34315 15 10C15 11.0977 14.3266 11.994 13.5 12.5C13.2401 12.6591 13.1453 12.9235 13.0512 13.1864L13.0511 13.1866C12.9047 13.5951 12.7595 14 11.9974 14C11.4451 14 10.9974 13.5523 10.9974 13C10.9974 12.9649 10.9992 12.9302 11.0027 12.896C11.0305 12.3672 11.2663 11.9368 11.523 11.6239C11.7942 11.2935 12.1507 11.0237 12.4234 10.8616C13.9401 9.96 12.0902 8.1154 11.1332 9.50073ZM11.9974 15C11.4451 15 10.9974 15.4477 10.9974 16C10.9974 16.5523 11.4451 17 11.9974 17C12.5497 17 12.9974 16.5523 12.9974 16C12.9974 15.4477 12.5497 15 11.9974 15Z" fill="#1E429F"/>
</g>
</svg>
