<svg width="26" height="30" viewBox="0 0 26 30" fill="none" xmlns="http://www.w3.org/2000/svg">
<g id="elements">
<path id="Rectangle 567" d="M1 13.6665C1 8.66686 1 6.16704 2.27322 4.4146C2.68442 3.84864 3.18213 3.35092 3.7481 2.93972C5.50054 1.6665 8.00036 1.6665 13 1.6665C17.9996 1.6665 20.4995 1.6665 22.2519 2.93972C22.8179 3.35092 23.3156 3.84864 23.7268 4.4146C25 6.16704 25 8.66686 25 13.6665V16.3332C25 21.3328 25 23.8326 23.7268 25.5851C23.3156 26.151 22.8179 26.6488 22.2519 27.06C20.4995 28.3332 17.9996 28.3332 13 28.3332C8.00036 28.3332 5.50054 28.3332 3.7481 27.06C3.18213 26.6488 2.68442 26.151 2.27322 25.5851C1 23.8326 1 21.3328 1 16.3332V13.6665Z" stroke="#680DB3" stroke-width="1.5"/>
<path id="Vector 4454" d="M17 16.333L15.8571 13.6663M9 16.333L10.1429 13.6663M10.1429 13.6663L12.2101 8.84281C12.3423 8.53424 12.6541 8.33301 13 8.33301C13.3459 8.33301 13.6577 8.53424 13.7899 8.84281L15.8571 13.6663M10.1429 13.6663H15.8571" stroke="#680DB3" stroke-width="1.5" stroke-linecap="round" stroke-linejoin="round"/>
<path id="Vector 1495" d="M7.66663 21.6665L18.3333 21.6665" stroke="#680DB3" stroke-width="1.5" stroke-linecap="round" stroke-linejoin="round"/>
</g>
</svg>
