<svg width="30" height="30" viewBox="0 0 30 30" fill="none" xmlns="http://www.w3.org/2000/svg">
<g id="elements">
<ellipse id="Ellipse 1581" cx="19.6667" cy="13.6667" rx="8.66667" ry="2.66667" stroke="#680DB3" stroke-width="1.5"/>
<path id="Ellipse 1582" d="M28.3333 19.6665C28.3333 21.1393 24.4531 22.3332 19.6667 22.3332C14.8802 22.3332 11 21.1393 11 19.6665" stroke="#680DB3" stroke-width="1.5"/>
<path id="Ellipse 1583" d="M28.3333 13.6665V25.3998C28.3333 27.0199 24.4531 28.3332 19.6667 28.3332C14.8802 28.3332 11 27.0199 11 25.3998V13.6665" stroke="#680DB3" stroke-width="1.5"/>
<ellipse id="Ellipse 1584" cx="10.3333" cy="4.33317" rx="8.66667" ry="2.66667" stroke="#680DB3" stroke-width="1.5"/>
<path id="Vector" d="M6.99996 13.6667C4.47754 13.3597 2.15984 12.5661 1.66663 11M6.99996 20.3333C4.47754 20.0264 2.15984 19.2327 1.66663 17.6667" stroke="#680DB3" stroke-width="1.5" stroke-linecap="round"/>
<path id="Vector_2" d="M6.99996 26.9997C4.47754 26.6927 2.15984 25.8991 1.66663 24.333L1.66663 4.33301" stroke="#680DB3" stroke-width="1.5" stroke-linecap="round"/>
<path id="Ellipse 1590" d="M19 6.99967V4.33301" stroke="#680DB3" stroke-width="1.5" stroke-linecap="round"/>
</g>
</svg>
