<svg width="40" height="44" viewBox="0 0 40 44" fill="none" xmlns="http://www.w3.org/2000/svg">
<g id="Icon">
<rect id="Rectangle" y="0.918945" width="40" height="42.1622" rx="8" fill="#E5FEE9"/>
<path id="Icon_2" fill-rule="evenodd" clip-rule="evenodd" d="M20.9933 14.4985C20.9355 13.9743 20.5128 13.5674 20 13.5674C19.4477 13.5674 19 14.0393 19 14.6214V26.833L13.7071 21.2547L13.6129 21.167C13.2206 20.8455 12.6534 20.8747 12.2929 21.2547C11.9024 21.6663 11.9024 22.3337 12.2929 22.7453L19.2929 30.1237L19.2944 30.1251C19.3229 30.155 19.353 30.1831 19.3847 30.2091L19.3871 30.2114C19.7794 30.5329 20.3466 30.5037 20.7071 30.1237L27.7071 22.7453L27.7903 22.646C28.0953 22.2325 28.0676 21.6346 27.7071 21.2547L27.6129 21.167C27.2206 20.8455 26.6534 20.8747 26.2929 21.2547L21 26.833V14.6214L20.9933 14.4985Z" fill="#33CC4B"/>
</g>
</svg>
