<svg width="26" height="26" viewBox="0 0 26 26" fill="none" xmlns="http://www.w3.org/2000/svg">
<g id="elements">
<path id="Vector" d="M7.66663 3V1M18.3333 3V1" stroke="#680DB3" stroke-width="1.5" stroke-linecap="round" stroke-linejoin="round"/>
<path id="Vector_2" d="M23 7.6665L25 7.6665M23 18.3332H25" stroke="#680DB3" stroke-width="1.5" stroke-linecap="round" stroke-linejoin="round"/>
<path id="Vector_3" d="M7.66663 25V23M18.3333 25V23" stroke="#680DB3" stroke-width="1.5" stroke-linecap="round" stroke-linejoin="round"/>
<path id="Vector_4" d="M1 7.6665L3 7.6665M1 18.3332H3" stroke="#680DB3" stroke-width="1.5" stroke-linecap="round" stroke-linejoin="round"/>
<path id="Rectangle 17850" d="M7.66663 11.6665C7.66663 9.78089 7.66663 8.83808 8.25241 8.25229C8.8382 7.6665 9.78101 7.6665 11.6666 7.6665H14.3333C16.2189 7.6665 17.1617 7.6665 17.7475 8.25229C18.3333 8.83808 18.3333 9.78089 18.3333 11.6665V14.3332C18.3333 16.2188 18.3333 17.1616 17.7475 17.7474C17.1617 18.3332 16.2189 18.3332 14.3333 18.3332H11.6666C9.78101 18.3332 8.8382 18.3332 8.25241 17.7474C7.66663 17.1616 7.66663 16.2188 7.66663 14.3332V11.6665Z" stroke="#680DB3" stroke-width="1.5"/>
</g>
</svg>
