<svg width="24" height="24" viewBox="0 0 24 24" fill="none" xmlns="http://www.w3.org/2000/svg">
<g id="Icons/User">
<path id="&#240;&#159;&#145;&#145; Edit Color" fill-rule="evenodd" clip-rule="evenodd" d="M18.818 13.1244C18.2016 12.4097 17.1428 12.4466 16.3149 12.8997C15.0338 13.6009 13.5635 13.9996 12 13.9996C10.4365 13.9996 8.96618 13.6009 7.68505 12.8997C6.85717 12.4466 5.79841 12.4097 5.182 13.1244C3.82222 14.701 3 16.7543 3 18.9996V19.9996C3 21.1042 3.89543 21.9996 5 21.9996H19C20.1046 21.9996 21 21.1042 21 19.9996V18.9996C21 16.7543 20.1778 14.701 18.818 13.1244Z" fill="#928FFF"/>
<path id="&#240;&#159;&#145;&#145; Edit Color_2" fill-rule="evenodd" clip-rule="evenodd" d="M16 6C16 8.20914 14.2091 10 12 10C9.79086 10 8 8.20914 8 6C8 3.79086 9.79086 2 12 2C14.2091 2 16 3.79086 16 6Z" fill="#1E429F"/>
</g>
</svg>
